<svg xmlns="http://www.w3.org/2000/svg" viewBox="0 0 32 32">
  <!-- plate -->
  <ellipse cx="16" cy="27" rx="13" ry="2.5" fill="#e5c9a8"/>

  <!-- cake base -->
  <rect x="6" y="16" width="20" height="9" rx="2" fill="#f2a65a"/>
  <rect x="6" y="16" width="20" height="3" fill="#e8935a"/>

  <!-- frosting drip layer -->
  <path d="M5 16
           C5 13.5 8 13.5 8 16
           C8 13.5 11 13.5 11 16
           C11 13.5 14 13.5 14 16
           C14 13.5 17 13.5 17 16
           C17 13.5 20 13.5 20 16
           C20 13.5 23 13.5 23 16
           C23 13.5 26 13.5 26 16
           C26 13.5 27 13.5 27 16
           L27 18 L5 18 Z" fill="#fff3e0"/>

  <!-- candle -->
  <rect x="14.5" y="6" width="3" height="7" rx="1" fill="#e86a5c"/>

  <!-- flame -->
  <path d="M16 2.5c1.2 1.6 1.8 2.7 1.8 3.7a1.8 1.8 0 1 1-3.6 0c0-1 .6-2.1 1.8-3.7z" fill="#ffb703"/>
</svg>
